# Blender v2.79 (sub 0) OBJ File: ''
# www.blender.org
mtllib floorBig.mtl
o Cube
v 12.000000 -1.000000 -11.999999
v 12.000000 -1.000000 12.000000
v -12.000002 -1.000000 11.999998
v -11.999996 -1.000000 -12.000004
v 12.000006 1.000000 -11.999993
v 11.999992 1.000000 12.000008
v -12.000004 1.000000 11.999996
v -11.999999 1.000000 -12.000000
v 11.999998 1.000000 0.000006
v 0.000003 1.000000 -11.999997
v -0.000006 1.000000 12.000002
v -12.000002 1.000000 -0.000002
v -0.000002 1.000000 0.000002
v 11.999996 1.000000 6.000007
v -5.999999 1.000000 -11.999998
v -6.000006 1.000000 11.999998
v -12.000000 1.000000 -6.000001
v 12.000003 1.000000 -5.999993
v 6.000004 1.000000 -11.999996
v 5.999993 1.000000 12.000004
v -12.000003 1.000000 5.999997
v -0.000004 1.000000 6.000001
v 0.000001 1.000000 -5.999998
v 5.999998 1.000000 0.000004
v -6.000001 1.000000 0.000000
v -6.000000 1.000000 -5.999999
v 6.000001 1.000000 -5.999996
v 5.999996 1.000000 6.000004
v -6.000004 1.000000 5.999999
vn 0.0000 1.0000 0.0000
vn 0.0000 -1.0000 0.0000
vn 1.0000 0.0000 0.0000
vn -0.0000 -0.0000 1.0000
vn -1.0000 -0.0000 -0.0000
vn 0.0000 0.0000 -1.0000
usemtl ground
s off
f 29//1 21//1 7//1 16//1
f 28//1 22//1 11//1 20//1
f 27//1 23//1 13//1 24//1
f 26//1 17//1 12//1 25//1
f 23//1 26//1 25//1 13//1
f 10//1 15//1 26//1 23//1
f 15//1 8//1 17//1 26//1
f 18//1 27//1 24//1 9//1
f 5//1 19//1 27//1 18//1
f 19//1 10//1 23//1 27//1
f 14//1 28//1 20//1 6//1
f 9//1 24//1 28//1 14//1
f 24//1 13//1 22//1 28//1
f 22//1 29//1 16//1 11//1
f 13//1 25//1 29//1 22//1
f 25//1 12//1 21//1 29//1
usemtl borde
f 1//2 2//2 3//2 4//2
f 1//3 5//3 18//3 9//3 14//3 6//3 2//3
f 2//4 6//4 20//4 11//4 16//4 7//4 3//4
f 3//5 7//5 21//5 12//5 17//5 8//5 4//5
f 5//6 1//6 4//6 8//6 15//6 10//6 19//6
